<svg width="64" height="64" viewBox="0 0 64 64" fill="none" xmlns="http://www.w3.org/2000/svg">
<path d="M6.50723 42.7737V17.9532C6.41009 16.4397 7.29214 15.6232 9.1456 15.5H15.0868C16.2953 15.5 17.0141 16.2625 17.2317 17.7914V33.9854C17.2317 35.1831 17.3172 36.0034 17.4804 36.4347C17.6436 36.8738 18.1681 36.4925 19.0463 35.2871L40.3398 15.5H53.217C54.744 15.5693 54.9072 16.2741 53.7104 17.6258L41.3112 30.6503L33.7808 38.0137L29.1802 42.9162C25.345 46.4746 21.5837 48.25 17.8962 48.25H13.2761C8.76092 48.25 6.50723 46.4207 6.50723 42.7737Z" fill="#E1012B"/>
<path d="M42.7324 33.5L44.269 34.9101L56.4655 46.1253C57.6546 47.4777 57.4925 48.1808 55.9752 48.25H43.1841L37.8947 43.3167L35.25 40.8462L42.7324 33.5Z" fill="#EF8600"/>
</svg>
